<?xml version="1.0" encoding="UTF-8" standalone="no"?>
<!DOCTYPE svg PUBLIC "-//W3C//DTD SVG 1.1//EN"
 "http://www.w3.org/Graphics/SVG/1.1/DTD/svg11.dtd">
<!-- Generated by graphviz version 2.47.0 (20210316.0004)
 -->
<!-- Title: dependencies Pages: 1 -->
<svg width="794pt" height="284pt"
 viewBox="0.00 0.00 794.00 284.00" xmlns="http://www.w3.org/2000/svg" xmlns:xlink="http://www.w3.org/1999/xlink">
<g id="graph0" class="graph" transform="scale(1 1) rotate(0) translate(4 280)">
<title>dependencies</title>
<polygon fill="white" stroke="transparent" points="-4,4 -4,-280 790,-280 790,4 -4,4"/>
<text text-anchor="start" x="372.01" y="-42.4" font-family="Times-12" font-weight="bold" font-size="14.00">Legend</text>
<polygon fill="#ffffb3" stroke="transparent" points="159,-10 159,-30 179,-30 179,-10 159,-10"/>
<text text-anchor="start" x="182.63" y="-15.4" font-family="Times-12" font-size="14.00"> &#160;Declarations</text>
<polygon fill="#8dd3c7" stroke="transparent" points="272,-10 272,-30 292,-30 292,-10 272,-10"/>
<text text-anchor="start" x="295.73" y="-15.4" font-family="Times-12" font-size="14.00"> &#160;Module</text>
<polygon fill="#80b1d3" stroke="transparent" points="358,-10 358,-30 378,-30 378,-10 358,-10"/>
<text text-anchor="start" x="381.78" y="-15.4" font-family="Times-12" font-size="14.00"> &#160;Bootstrap</text>
<polygon fill="#fdb462" stroke="transparent" points="455,-10 455,-30 475,-30 475,-10 455,-10"/>
<text text-anchor="start" x="478.67" y="-15.4" font-family="Times-12" font-size="14.00"> &#160;Providers</text>
<polygon fill="#fb8072" stroke="transparent" points="551,-10 551,-30 571,-30 571,-10 551,-10"/>
<text text-anchor="start" x="574.73" y="-15.4" font-family="Times-12" font-size="14.00"> &#160;Exports</text>
<g id="clust1" class="cluster">
<title>cluster_AppModule</title>
<polygon fill="none" stroke="black" stroke-dasharray="1,5" points="8,-70 8,-268 778,-268 778,-70 8,-70"/>
</g>
<g id="clust7" class="cluster">
<title>cluster_AppModule_imports</title>
<polygon fill="none" stroke="black" points="626,-78 626,-130 770,-130 770,-78 626,-78"/>
</g>
<g id="clust9" class="cluster">
<title>cluster_AppModule_bootstrap</title>
<polygon fill="none" stroke="black" points="356,-208 356,-260 480,-260 480,-208 356,-208"/>
</g>
<g id="clust2" class="cluster">
<title>cluster_AppModule_declarations</title>
<polygon fill="none" stroke="black" points="16,-78 16,-130 618,-130 618,-78 16,-78"/>
</g>
<!-- AppComponent -->
<g id="node1" class="node">
<title>AppComponent</title>
<polygon fill="#ffffb3" stroke="black" points="609.94,-122 504.06,-122 504.06,-86 609.94,-86 609.94,-122"/>
<text text-anchor="middle" x="557" y="-99.8" font-family="Times,serif" font-size="14.00">AppComponent</text>
</g>
<!-- AppModule -->
<g id="node5" class="node">
<title>AppModule</title>
<polygon fill="#8dd3c7" stroke="black" points="459.66,-187 456.66,-191 435.66,-191 432.66,-187 376.34,-187 376.34,-151 459.66,-151 459.66,-187"/>
<text text-anchor="middle" x="418" y="-164.8" font-family="Times,serif" font-size="14.00">AppModule</text>
</g>
<!-- AppComponent&#45;&gt;AppModule -->
<g id="edge1" class="edge">
<title>AppComponent&#45;&gt;AppModule</title>
<path fill="none" stroke="black" d="M557,-122.02C557,-139.37 557,-163 557,-163 557,-163 469.7,-163 469.7,-163"/>
<polygon fill="black" stroke="black" points="469.7,-159.5 459.7,-163 469.7,-166.5 469.7,-159.5"/>
</g>
<!-- FirstFormComponent -->
<g id="node2" class="node">
<title>FirstFormComponent</title>
<polygon fill="#ffffb3" stroke="black" points="486.84,-122 349.16,-122 349.16,-86 486.84,-86 486.84,-122"/>
<text text-anchor="middle" x="418" y="-99.8" font-family="Times,serif" font-size="14.00">FirstFormComponent</text>
</g>
<!-- FirstFormComponent&#45;&gt;AppModule -->
<g id="edge2" class="edge">
<title>FirstFormComponent&#45;&gt;AppModule</title>
<path fill="none" stroke="black" d="M418,-122.11C418,-122.11 418,-140.99 418,-140.99"/>
<polygon fill="black" stroke="black" points="414.5,-140.99 418,-150.99 421.5,-140.99 414.5,-140.99"/>
</g>
<!-- SecondFormComponent -->
<g id="node3" class="node">
<title>SecondFormComponent</title>
<polygon fill="#ffffb3" stroke="black" points="331.38,-122 178.62,-122 178.62,-86 331.38,-86 331.38,-122"/>
<text text-anchor="middle" x="255" y="-99.8" font-family="Times,serif" font-size="14.00">SecondFormComponent</text>
</g>
<!-- SecondFormComponent&#45;&gt;AppModule -->
<g id="edge3" class="edge">
<title>SecondFormComponent&#45;&gt;AppModule</title>
<path fill="none" stroke="black" d="M255,-122.02C255,-139.37 255,-163 255,-163 255,-163 366.02,-163 366.02,-163"/>
<polygon fill="black" stroke="black" points="366.02,-166.5 376.02,-163 366.02,-159.5 366.02,-166.5"/>
</g>
<!-- SelectApiComponent -->
<g id="node4" class="node">
<title>SelectApiComponent</title>
<polygon fill="#ffffb3" stroke="black" points="160.04,-122 23.96,-122 23.96,-86 160.04,-86 160.04,-122"/>
<text text-anchor="middle" x="92" y="-99.8" font-family="Times,serif" font-size="14.00">SelectApiComponent</text>
</g>
<!-- SelectApiComponent&#45;&gt;AppModule -->
<g id="edge4" class="edge">
<title>SelectApiComponent&#45;&gt;AppModule</title>
<path fill="none" stroke="black" d="M92,-122.28C92,-143.32 92,-175 92,-175 92,-175 366.05,-175 366.05,-175"/>
<polygon fill="black" stroke="black" points="366.05,-178.5 376.05,-175 366.05,-171.5 366.05,-178.5"/>
</g>
<!-- AppComponent  -->
<g id="node7" class="node">
<title>AppComponent </title>
<polygon fill="#80b1d3" stroke="black" points="472.44,-252 363.56,-252 363.56,-216 472.44,-216 472.44,-252"/>
<text text-anchor="middle" x="418" y="-229.8" font-family="Times,serif" font-size="14.00">AppComponent </text>
</g>
<!-- AppModule&#45;&gt;AppComponent  -->
<g id="edge6" class="edge">
<title>AppModule&#45;&gt;AppComponent </title>
<path fill="none" stroke="black" stroke-dasharray="1,5" d="M418,-187.11C418,-187.11 418,-205.99 418,-205.99"/>
<polygon fill="black" stroke="black" points="414.5,-205.99 418,-215.99 421.5,-205.99 414.5,-205.99"/>
</g>
<!-- AppRoutingModule -->
<g id="node6" class="node">
<title>AppRoutingModule</title>
<polygon fill="#8dd3c7" stroke="black" points="762.27,-122 759.27,-126 738.27,-126 735.27,-122 633.73,-122 633.73,-86 762.27,-86 762.27,-122"/>
<text text-anchor="middle" x="698" y="-99.8" font-family="Times,serif" font-size="14.00">AppRoutingModule</text>
</g>
<!-- AppRoutingModule&#45;&gt;AppModule -->
<g id="edge5" class="edge">
<title>AppRoutingModule&#45;&gt;AppModule</title>
<path fill="none" stroke="black" d="M698,-122.28C698,-143.32 698,-175 698,-175 698,-175 469.92,-175 469.92,-175"/>
<polygon fill="black" stroke="black" points="469.92,-171.5 459.92,-175 469.92,-178.5 469.92,-171.5"/>
</g>
</g>
</svg>
