<?xml version="1.0" encoding="UTF-8" standalone="no"?>
<!DOCTYPE svg PUBLIC "-//W3C//DTD SVG 1.1//EN"
 "http://www.w3.org/Graphics/SVG/1.1/DTD/svg11.dtd">
<!-- Generated by graphviz version 2.47.0 (20210316.0004)
 -->
<!-- Title: dependencies Pages: 1 -->
<svg width="794pt" height="284pt"
 viewBox="0.00 0.00 794.00 284.00" xmlns="http://www.w3.org/2000/svg" xmlns:xlink="http://www.w3.org/1999/xlink">
<g id="graph0" class="graph" transform="scale(1 1) rotate(0) translate(4 280)">
<title>dependencies</title>
<polygon fill="white" stroke="transparent" points="-4,4 -4,-280 790,-280 790,4 -4,4"/>
<text text-anchor="start" x="372.01" y="-42.4" font-family="Times-12" font-weight="bold" font-size="14.00">Legend</text>
<polygon fill="#ffffb3" stroke="transparent" points="159,-10 159,-30 179,-30 179,-10 159,-10"/>
<text text-anchor="start" x="182.63" y="-15.4" font-family="Times-12" font-size="14.00"> &#160;Declarations</text>
<polygon fill="#8dd3c7" stroke="transparent" points="272,-10 272,-30 292,-30 292,-10 272,-10"/>
<text text-anchor="start" x="295.73" y="-15.4" font-family="Times-12" font-size="14.00"> &#160;Module</text>
<polygon fill="#80b1d3" stroke="transparent" points="358,-10 358,-30 378,-30 378,-10 358,-10"/>
<text text-anchor="start" x="381.78" y="-15.4" font-family="Times-12" font-size="14.00"> &#160;Bootstrap</text>
<polygon fill="#fdb462" stroke="transparent" points="455,-10 455,-30 475,-30 475,-10 455,-10"/>
<text text-anchor="start" x="478.67" y="-15.4" font-family="Times-12" font-size="14.00"> &#160;Providers</text>
<polygon fill="#fb8072" stroke="transparent" points="551,-10 551,-30 571,-30 571,-10 551,-10"/>
<text text-anchor="start" x="574.73" y="-15.4" font-family="Times-12" font-size="14.00"> &#160;Exports</text>
<g id="clust1" class="cluster">
<title>cluster_AppModule</title>
<polygon fill="none" stroke="black" stroke-dasharray="1,5" points="8,-70 8,-268 778,-268 778,-70 8,-70"/>
</g>
<g id="clust2" class="cluster">
<title>cluster_AppModule_declarations</title>
<polygon fill="none" stroke="black" points="168,-78 168,-130 770,-130 770,-78 168,-78"/>
</g>
<g id="clust7" class="cluster">
<title>cluster_AppModule_imports</title>
<polygon fill="none" stroke="black" points="16,-78 16,-130 160,-130 160,-78 16,-78"/>
</g>
<g id="clust9" class="cluster">
<title>cluster_AppModule_bootstrap</title>
<polygon fill="none" stroke="black" points="345,-208 345,-260 469,-260 469,-208 345,-208"/>
</g>
<!-- AppComponent -->
<g id="node1" class="node">
<title>AppComponent</title>
<polygon fill="#ffffb3" stroke="black" points="761.94,-122 656.06,-122 656.06,-86 761.94,-86 761.94,-122"/>
<text text-anchor="middle" x="709" y="-99.8" font-family="Times,serif" font-size="14.00">AppComponent</text>
</g>
<!-- AppModule -->
<g id="node5" class="node">
<title>AppModule</title>
<polygon fill="#8dd3c7" stroke="black" points="448.66,-187 445.66,-191 424.66,-191 421.66,-187 365.34,-187 365.34,-151 448.66,-151 448.66,-187"/>
<text text-anchor="middle" x="407" y="-164.8" font-family="Times,serif" font-size="14.00">AppModule</text>
</g>
<!-- AppComponent&#45;&gt;AppModule -->
<g id="edge1" class="edge">
<title>AppComponent&#45;&gt;AppModule</title>
<path fill="none" stroke="black" d="M709,-122.28C709,-143.32 709,-175 709,-175 709,-175 458.67,-175 458.67,-175"/>
<polygon fill="black" stroke="black" points="458.67,-171.5 448.67,-175 458.67,-178.5 458.67,-171.5"/>
</g>
<!-- FirstFormComponent -->
<g id="node2" class="node">
<title>FirstFormComponent</title>
<polygon fill="#ffffb3" stroke="black" points="638.84,-122 501.16,-122 501.16,-86 638.84,-86 638.84,-122"/>
<text text-anchor="middle" x="570" y="-99.8" font-family="Times,serif" font-size="14.00">FirstFormComponent</text>
</g>
<!-- FirstFormComponent&#45;&gt;AppModule -->
<g id="edge2" class="edge">
<title>FirstFormComponent&#45;&gt;AppModule</title>
<path fill="none" stroke="black" d="M570,-122.02C570,-139.37 570,-163 570,-163 570,-163 458.98,-163 458.98,-163"/>
<polygon fill="black" stroke="black" points="458.98,-159.5 448.98,-163 458.98,-166.5 458.98,-159.5"/>
</g>
<!-- SecondFormComponent -->
<g id="node3" class="node">
<title>SecondFormComponent</title>
<polygon fill="#ffffb3" stroke="black" points="483.38,-122 330.62,-122 330.62,-86 483.38,-86 483.38,-122"/>
<text text-anchor="middle" x="407" y="-99.8" font-family="Times,serif" font-size="14.00">SecondFormComponent</text>
</g>
<!-- SecondFormComponent&#45;&gt;AppModule -->
<g id="edge3" class="edge">
<title>SecondFormComponent&#45;&gt;AppModule</title>
<path fill="none" stroke="black" d="M407,-122.11C407,-122.11 407,-140.99 407,-140.99"/>
<polygon fill="black" stroke="black" points="403.5,-140.99 407,-150.99 410.5,-140.99 403.5,-140.99"/>
</g>
<!-- SelectApiComponent -->
<g id="node4" class="node">
<title>SelectApiComponent</title>
<polygon fill="#ffffb3" stroke="black" points="312.04,-122 175.96,-122 175.96,-86 312.04,-86 312.04,-122"/>
<text text-anchor="middle" x="244" y="-99.8" font-family="Times,serif" font-size="14.00">SelectApiComponent</text>
</g>
<!-- SelectApiComponent&#45;&gt;AppModule -->
<g id="edge4" class="edge">
<title>SelectApiComponent&#45;&gt;AppModule</title>
<path fill="none" stroke="black" d="M244,-122.02C244,-139.37 244,-163 244,-163 244,-163 355.02,-163 355.02,-163"/>
<polygon fill="black" stroke="black" points="355.02,-166.5 365.02,-163 355.02,-159.5 355.02,-166.5"/>
</g>
<!-- AppComponent  -->
<g id="node7" class="node">
<title>AppComponent </title>
<polygon fill="#80b1d3" stroke="black" points="461.44,-252 352.56,-252 352.56,-216 461.44,-216 461.44,-252"/>
<text text-anchor="middle" x="407" y="-229.8" font-family="Times,serif" font-size="14.00">AppComponent </text>
</g>
<!-- AppModule&#45;&gt;AppComponent  -->
<g id="edge6" class="edge">
<title>AppModule&#45;&gt;AppComponent </title>
<path fill="none" stroke="black" stroke-dasharray="1,5" d="M407,-187.11C407,-187.11 407,-205.99 407,-205.99"/>
<polygon fill="black" stroke="black" points="403.5,-205.99 407,-215.99 410.5,-205.99 403.5,-205.99"/>
</g>
<!-- AppRoutingModule -->
<g id="node6" class="node">
<title>AppRoutingModule</title>
<polygon fill="#8dd3c7" stroke="black" points="152.27,-122 149.27,-126 128.27,-126 125.27,-122 23.73,-122 23.73,-86 152.27,-86 152.27,-122"/>
<text text-anchor="middle" x="88" y="-99.8" font-family="Times,serif" font-size="14.00">AppRoutingModule</text>
</g>
<!-- AppRoutingModule&#45;&gt;AppModule -->
<g id="edge5" class="edge">
<title>AppRoutingModule&#45;&gt;AppModule</title>
<path fill="none" stroke="black" d="M88,-122.28C88,-143.32 88,-175 88,-175 88,-175 355.3,-175 355.3,-175"/>
<polygon fill="black" stroke="black" points="355.3,-178.5 365.3,-175 355.3,-171.5 355.3,-178.5"/>
</g>
</g>
</svg>
